# xmcd
#
# Track frame offsets: 
#        150
#        5242
#        26952
#        48745
#        65912
#        86255
#        90900
#        114667
#        131837
#        147512
#        152265
#        171575
#        185067
#        201855
#        222915
#        236155
#
# Disc length: 3400 seconds
#
# Revision: 11
# Processed by: cddbd v1.5.2PL0 Copyright (c) Steve Scherf et al.
# Submitted via: ExactAudioCopyFreeDBPlugin 1.0
#
DISCID=f40d4610
DTITLE=Shyne - Shyne
DYEAR=2000
DGENRE=Rap
TTITLE0=Dear America (Intro)
TTITLE1=Whatcha Gonna Do
TTITLE2=Bang
TTITLE3=Bad Boyz (feat. Barrington Levy)
TTITLE4=Let Me See Your Hands
TTITLE5=Gangsta Prayer (Interlude)
TTITLE6=The Life
TTITLE7=It's Ok
TTITLE8=Niggas Gonna Die
TTITLE9=Everyday (Interlude)
TTITLE10=Bonnie and Shyne (feat. Barrington Levy)
TTITLE11=The Hit
TTITLE12=That's Gangsta
TTITLE13=Spend Some Cheese
TTITLE14=Get Out (feat. Slim from 112)
TTITLE15=Commission
EXTD=
EXTT0=f40d4610
EXTT1=
EXTT2=
EXTT3=
EXTT4=
EXTT5=
EXTT6=
EXTT7=
EXTT8=
EXTT9=
EXTT10=
EXTT11=
EXTT12=
EXTT13=
EXTT14=
EXTT15=
PLAYORDER=
